<?xml version="1.0" encoding="utf-8"?>
<!DOCTYPE svg PUBLIC "-//W3C//DTD SVG 1.1//EN" "http://www.w3.org/Graphics/SVG/1.1/DTD/svg11.dtd">
<svg version="1.1" id="layer" xmlns="http://www.w3.org/2000/svg" xmlns:xlink="http://www.w3.org/1999/xlink" x="0px" y="0px"
	 width="100px" height="22px" viewBox="0 40.25 100 22" enable-background="new 0 40.25 100 22" xml:space="preserve">
<g>
	<path d="M5.583,56.119c-0.798,0-1.872-0.352-2.347-1.073c-0.077-0.107-0.107-0.215-0.107-0.307c0-0.292,0.276-0.536,0.537-0.536
		s0.322,0.152,0.476,0.307c0.368,0.383,0.905,0.552,1.426,0.552c1.166,0,1.825-0.645,1.825-1.365c0-2.101-4.233-1.288-4.233-4.095
		c0-1.457,1.257-2.27,2.515-2.27c0.875,0,1.902,0.476,2.454,1.197c0.077,0.107,0.107,0.214,0.107,0.322
		c0,0.276-0.246,0.506-0.537,0.506c-0.245,0-0.353-0.153-0.506-0.307c-0.399-0.414-0.936-0.675-1.519-0.675
		c-0.874,0-1.457,0.506-1.457,1.227c0,1.825,4.233,1.12,4.233,4.095C8.466,55.246,7.086,56.119,5.583,56.119"/>
</g>
<g>
	<path d="M12.515,53.053h-1.334v2.438c0,0.354-0.261,0.521-0.521,0.521s-0.521-0.184-0.521-0.521v-7.53
		c0-0.276,0.245-0.521,0.521-0.521h1.855c1.549,0,2.807,1.258,2.807,2.807C15.337,51.81,14.064,53.053,12.515,53.053 M12.515,52.01
		c0.966,0,1.764-0.783,1.764-1.764c0-0.982-0.798-1.764-1.764-1.764h-1.334v3.528H12.515z"/>
</g>
<g>
	<path d="M21.242,56.012h-3.926c-0.276,0-0.521-0.244-0.521-0.521v-7.53c0-0.276,0.246-0.521,0.521-0.521h3.926
		c0.353,0,0.521,0.261,0.521,0.521s-0.184,0.521-0.521,0.521h-3.405v2.53h3.083c0.353,0,0.521,0.262,0.521,0.521
		c0,0.262-0.184,0.521-0.521,0.521h-3.083v2.914h3.405c0.353,0,0.521,0.262,0.521,0.521C21.764,55.752,21.595,56.012,21.242,56.012"
		/>
	<path d="M28.466,56.104c-0.184,0-0.353-0.107-0.506-0.337l-3.573-5.937v5.659c0,0.338-0.261,0.521-0.521,0.521
		s-0.521-0.184-0.521-0.521v-7.53c0-0.383,0.214-0.613,0.475-0.613c0.184,0,0.353,0.107,0.506,0.337l3.589,5.935V47.96
		c0-0.353,0.261-0.521,0.521-0.521s0.521,0.184,0.521,0.521v7.53C28.942,55.89,28.727,56.104,28.466,56.104"/>
	<path d="M33.528,56.119c-1.611,0-2.915-1.303-2.915-2.914V50.23c0-1.61,1.304-2.914,2.915-2.914c0.843,0,1.932,0.383,2.484,1.074
		c0.077,0.107,0.123,0.215,0.123,0.322c0,0.291-0.261,0.537-0.537,0.537c-0.138,0-0.276-0.062-0.399-0.215l-0.077-0.077
		c-0.414-0.399-0.997-0.598-1.58-0.598c-1.028,0-1.856,0.844-1.856,1.856v3.006c0,1.027,0.844,1.855,1.856,1.855
		c1.028,0,1.856-0.844,1.856-1.855v-0.92H33.62c-0.337,0-0.521-0.261-0.521-0.521s0.184-0.521,0.521-0.521h2.301
		c0.276,0,0.521,0.245,0.521,0.521v1.441C36.426,54.831,35.138,56.119,33.528,56.119"/>
</g>
<g>
	<path d="M42.546,56.012H38.62c-0.276,0-0.521-0.244-0.521-0.521v-7.53c0-0.276,0.246-0.521,0.521-0.521h3.926
		c0.353,0,0.521,0.261,0.521,0.521s-0.184,0.521-0.521,0.521h-3.405v2.53h3.083c0.353,0,0.521,0.262,0.521,0.521
		c0,0.262-0.184,0.521-0.521,0.521h-3.083v2.914h3.405c0.353,0,0.521,0.262,0.521,0.521C43.067,55.752,42.899,56.012,42.546,56.012"
		/>
</g>
<g>
	<path d="M49.31,56.027c-0.154,0-0.322-0.076-0.43-0.245l-1.718-2.715H45.69v2.438c0,0.338-0.261,0.521-0.521,0.521
		c-0.261,0-0.521-0.184-0.521-0.521v-7.53c0-0.276,0.245-0.521,0.521-0.521h1.855c1.549,0,2.807,1.258,2.807,2.807
		c0,1.135-0.66,2.086-1.611,2.546l1.534,2.424c0.062,0.107,0.092,0.199,0.092,0.291C49.862,55.797,49.586,56.027,49.31,56.027
		 M47.024,52.01c0.951,0,1.764-0.768,1.764-1.764c0-0.982-0.798-1.764-1.764-1.764H45.69v3.528H47.024z"/>
	<path d="M54.126,56.119c-1.61,0-2.915-1.303-2.915-2.914V50.23c0-1.61,1.305-2.914,2.915-2.914c0.843,0,1.933,0.383,2.484,1.074
		c0.077,0.107,0.122,0.215,0.122,0.322c0,0.291-0.26,0.537-0.536,0.537c-0.138,0-0.276-0.062-0.399-0.215l-0.076-0.077
		c-0.414-0.399-0.996-0.598-1.58-0.598c-1.027,0-1.855,0.844-1.855,1.856v3.006c0,1.027,0.844,1.855,1.855,1.855
		c1.028,0,1.856-0.844,1.856-1.855v-0.92h-1.779c-0.337,0-0.521-0.261-0.521-0.521s0.185-0.521,0.521-0.521h2.301
		c0.276,0,0.521,0.245,0.521,0.521v1.441C57.04,54.831,55.736,56.119,54.126,56.119"/>
	<path d="M63.711,56.012c-0.199,0-0.398-0.107-0.475-0.352L62.5,53.436h-2.546l-0.736,2.225c-0.077,0.244-0.276,0.352-0.476,0.352
		c-0.275,0-0.537-0.199-0.537-0.506c0-0.061,0.016-0.123,0.031-0.184l2.516-7.531c0.107-0.292,0.291-0.445,0.49-0.445
		s0.398,0.153,0.506,0.445l2.516,7.531c0.016,0.061,0.031,0.123,0.031,0.184C64.264,55.813,63.988,56.012,63.711,56.012
		 M61.211,49.617l-0.92,2.776h1.856L61.211,49.617z"/>
	<path d="M67.868,56.119c-0.798,0-1.871-0.352-2.347-1.073c-0.076-0.107-0.107-0.215-0.107-0.307c0-0.292,0.275-0.536,0.537-0.536
		c0.26,0,0.322,0.152,0.475,0.307c0.369,0.383,0.906,0.552,1.427,0.552c1.166,0,1.825-0.645,1.825-1.365
		c0-2.101-4.232-1.288-4.232-4.095c0-1.457,1.258-2.27,2.515-2.27c0.874,0,1.901,0.476,2.454,1.197
		c0.076,0.107,0.107,0.214,0.107,0.322c0,0.276-0.246,0.506-0.537,0.506c-0.245,0-0.353-0.153-0.506-0.307
		c-0.398-0.414-0.936-0.675-1.519-0.675c-0.874,0-1.457,0.506-1.457,1.227c0,1.825,4.233,1.12,4.233,4.095
		C70.752,55.246,69.371,56.119,67.868,56.119"/>
	<path d="M74.662,56.119c-0.797,0-1.871-0.352-2.346-1.073c-0.077-0.107-0.107-0.215-0.107-0.307c0-0.292,0.275-0.536,0.537-0.536
		c0.26,0,0.321,0.152,0.475,0.307c0.368,0.383,0.905,0.552,1.427,0.552c1.165,0,1.825-0.645,1.825-1.365
		c0-2.101-4.233-1.288-4.233-4.095c0-1.457,1.272-2.27,2.515-2.27c0.875,0,1.902,0.476,2.455,1.197
		c0.076,0.107,0.107,0.214,0.107,0.322c0,0.276-0.246,0.506-0.537,0.506c-0.246,0-0.354-0.153-0.506-0.307
		c-0.399-0.414-0.936-0.675-1.52-0.675c-0.873,0-1.457,0.506-1.457,1.227c0,1.825,4.234,1.12,4.234,4.095
		C77.546,55.246,76.166,56.119,74.662,56.119"/>
</g>
<g>
	<path d="M83.666,56.012h-3.927c-0.276,0-0.521-0.244-0.521-0.521v-7.53c0-0.276,0.245-0.521,0.521-0.521h3.927
		c0.353,0,0.521,0.261,0.521,0.521s-0.185,0.521-0.521,0.521h-3.405v2.53h3.083c0.353,0,0.521,0.262,0.521,0.521
		c0,0.262-0.184,0.521-0.521,0.521h-3.083v2.914h3.405c0.353,0,0.521,0.262,0.521,0.521C84.188,55.752,84.003,56.012,83.666,56.012"
		/>
</g>
<g>
	<path fill="#E20039" d="M90.66,46.104c-0.445,0-0.799-0.353-0.799-0.798v-1.979c0-0.445,0.354-0.797,0.799-0.797
		c0.444,0,0.797,0.353,0.797,0.797v1.979C91.457,45.736,91.104,46.104,90.66,46.104"/>
	<path fill="#E20039" d="M92.469,47.408c-0.337,0-0.644-0.215-0.766-0.552c-0.139-0.414,0.092-0.875,0.521-1.012l1.886-0.614
		c0.414-0.138,0.874,0.092,1.013,0.521c0.138,0.414-0.092,0.875-0.506,1.012l-1.887,0.614
		C92.639,47.393,92.546,47.408,92.469,47.408"/>
</g>
<path fill="#E20039" d="M88.85,47.408c-0.076,0-0.168-0.016-0.245-0.046l-1.887-0.613c-0.414-0.138-0.644-0.583-0.521-1.012
	c0.138-0.414,0.583-0.645,1.013-0.521l1.887,0.613c0.414,0.138,0.644,0.583,0.521,1.012C89.51,47.193,89.188,47.408,88.85,47.408"/>
<path fill="#E20039" d="M88.374,51.135c-0.169,0-0.321-0.046-0.476-0.153c-0.353-0.261-0.43-0.767-0.184-1.12l1.166-1.61
	c0.26-0.353,0.767-0.429,1.119-0.168s0.43,0.767,0.168,1.12l-1.165,1.61C88.865,51.027,88.619,51.135,88.374,51.135"/>
<path fill="#E20039" d="M92.945,51.135c-0.246,0-0.491-0.107-0.645-0.338l-1.166-1.61c-0.261-0.353-0.184-0.859,0.169-1.12
	s0.858-0.184,1.12,0.184l1.165,1.61c0.261,0.353,0.185,0.859-0.185,1.12C93.268,51.089,93.113,51.135,92.945,51.135"/>
</svg>
