<?xml version="1.0" encoding="utf-8"?>
<!DOCTYPE svg PUBLIC "-//W3C//DTD SVG 1.1//EN" "http://www.w3.org/Graphics/SVG/1.1/DTD/svg11.dtd">
<svg version="1.1" id="Layer_1" xmlns="http://www.w3.org/2000/svg" xmlns:xlink="http://www.w3.org/1999/xlink" x="0px" y="0px"
	 width="572.5px" height="172px" viewBox="0 0 572.5 172" enable-background="new 0 0 572.5 172" xml:space="preserve">
<g>
	<g>
		<path d="M40,12.5c-0.46,42.333,1.342,84.928-5.911,126.835c-0.545,3.153,4.272,4.502,4.821,1.329
			C46.244,98.292,44.534,55.304,45,12.5C45.035,9.274,40.035,9.278,40,12.5L40,12.5z"/>
	</g>
</g>
<g>
	<g>
		<path d="M69.589,32.665C77.913,75.447,77.552,119.151,80,162.5c0.181,3.205,5.182,3.223,5,0
			c-2.474-43.804-2.178-87.932-10.589-131.165C73.795,28.172,68.977,29.515,69.589,32.665L69.589,32.665z"/>
	</g>
</g>
<g>
	<g>
		<path d="M47.5,103.5c7.422,0.183,14.627,2.118,22.025,2.562c5.223,0.313,10.436,0.783,15.657,1.117
			c11.162,0.714,22.458,0.879,33.479-1.273c7.823-1.528,18.007-5.469,22.165-12.839c3.336-5.914-4.969-6.723-8.634-6.202
			c-6.755,0.961-14.382,3.327-19.583,7.918c-5.311,4.687-13.911,14.733-7.944,21.944c5.848,7.065,17.013,1.33,23.661-1.366
			c10.694-4.336,20.248-11.091,28.422-19.185c17.8-17.625,27.693-42.847,24.162-67.84c-0.189-1.338-1.894-2.09-3.075-1.746
			c-16.277,4.734-19.529,29.51-21.105,43.565c-1.999,17.826,4.277,38.023,23.526,42.813c20.215,5.031,40.914-10.659,54.301-23.945
			c14.76-14.648,29.109-36.616,25.558-58.432c-0.98-6.021-4.211-11.552-11.032-11.048c-6.837,0.506-13.083,5.688-18.144,9.843
			c-14.63,12.012-28.07,27.45-38.602,43.031c-7.158,10.591-12.138,22.337-14.896,34.806c-1.899,8.588-1.877,22.424,8.531,25.904
			c4.55,1.521,8.368-0.318,12.03-3.044c4.3-3.2,8.426-6.641,12.729-9.849c8.916-6.648,17.903-13.191,27.404-18.988
			c13.105-7.996,29.89-16.757,45.7-12.837c-0.582-0.582-1.164-1.164-1.746-1.746c1.424,8.303-8.732,14.844-14.651,18.607
			c-7.599,4.832-15.914,8.335-24.54,10.863c-10.373,3.04-21.518,4.38-32.263,2.856c-2.934-0.416-5.9-1.138-8.736-2.004
			c-1.734-0.53-3.345-1.279-4.881-2.237c-3.609-2.25,0.472-4.123,2.982-4.249c3.208-0.161,3.224-5.162,0-5
			c-4.556,0.229-9.19,2.232-9.561,7.344c-0.286,3.938,4.267,6.645,7.301,7.904c11.044,4.585,23.62,4.463,35.238,2.712
			c13.078-1.972,25.755-6.944,36.984-13.871c8.335-5.142,18.842-13.218,16.949-24.253c-0.14-0.818-0.97-1.554-1.746-1.746
			c-20.878-5.176-42.547,8.341-59.096,19.472c-8.539,5.744-16.737,11.997-24.988,18.142c-4.962,3.696-10.267,10.818-16.313,5.029
			c-4.967-4.757-3.52-13.09-2.208-19.024c5.41-24.457,21.495-43.583,38.297-61.323c4.234-4.471,28.522-30.644,33.521-17.893
			c3.27,8.341,0.536,18.955-2.472,26.931c-3.691,9.789-10.025,18.619-16.924,26.381c-11.922,13.412-29.623,27.806-48.551,27.463
			c-19.478-0.353-26.354-20.575-24.865-37.009c0.682-7.517,2.134-15.002,4.352-22.215c2.096-6.814,5.692-15.937,13.246-18.134
			c-1.025-0.582-2.05-1.164-3.075-1.746c3.454,24.443-7.513,48.286-24.958,65.003c-8.572,8.215-18.681,13.74-29.635,18.073
			c-3.618,1.432-11.563,4.778-13.586-0.405c-1.767-4.526,4.701-10.6,7.543-13.375c4.743-4.631,13.098-7.075,19.595-7.362
			c0.545-0.024,1.095-0.006,1.631,0.097c0.594,0.114,0.048-1.54-0.444-0.667c-1.019,1.807-3.302,3.3-4.911,4.489
			c-4.083,3.018-9.099,4.503-13.993,5.568c-10.883,2.368-22.443,1.716-33.474,1.01c-4.781-0.306-9.553-0.723-14.334-1.032
			c-7.396-0.479-14.598-2.379-22.025-2.562C44.274,98.42,44.281,103.421,47.5,103.5L47.5,103.5z"/>
	</g>
</g>
<g>
	<g>
		<path d="M220,114.5c11.009,0.083,21.937,1.623,32.969,1.401c8.845-0.178,20.816-0.951,26.19-9.14
			c1.775-2.705-2.557-5.207-4.317-2.523c-4.962,7.562-18.924,6.751-26.705,6.691c-9.398-0.073-18.746-1.358-28.137-1.429
			C216.774,109.476,216.777,114.476,220,114.5L220,114.5z"/>
	</g>
</g>
<g>
	<g>
		<path d="M307.5,16.5c0.183,19.922,5.624,39.208,8.103,58.873c2.63,20.86,3.372,42.123,2.897,63.127
			c1.637-0.222,3.273-0.443,4.911-0.665c-2.471-13.024-4.232-26.163-4.685-39.421c-0.471-13.8,0.455-28.49,6.432-41.152
			c-1.522-0.199-3.046-0.398-4.569-0.597c7.056,20.914,5.046,43.271,10.132,64.549c1.535,6.423,4.539,27.247,15.899,20.965
			c5.979-3.306,5.857-10.892,6.171-16.927c0.565-10.849,3.004-21.97,6.653-32.183c3.002-8.402,7.703-16.463,12.364-24.039
			c4.862-7.903,10.734-16.191,18.953-20.871c2.801-1.595,0.283-5.915-2.523-4.317c-13.27,7.555-21.497,22.935-28.252,36.042
			c-7.864,15.261-11.305,31.755-12.391,48.804c-0.197,3.097-0.311,7.845-3.671,9.24c-2.559,1.062-4.13-2.671-4.876-4.457
			c-2.082-4.983-2.904-10.575-3.99-15.842c-4.258-20.646-2.844-42.124-9.647-62.293c-0.631-1.868-3.576-2.701-4.569-0.597
			c-12.1,25.63-7.339,57.603-2.253,84.426c0.542,2.856,4.85,2.066,4.911-0.665c0.463-20.485-0.574-40.937-2.688-61.312
			c-2.11-20.342-8.124-40.134-8.313-60.688C312.471,13.277,307.471,13.274,307.5,16.5L307.5,16.5z"/>
	</g>
</g>
<g>
	<g>
		<path d="M349.158,132.762c4.876-9.236,13.212-13.405,21.589-18.923c5.804-3.822,10.959-8.409,17.122-11.717
			c2.395-1.286,11.871-5.071,11.602,0.663c-0.158,3.367-3.791,6.814-5.957,9.018c-6.805,6.92-45.755,33.108-46.514,9.698
			c-0.104-3.216-5.104-3.226-5,0c0.416,12.843,10.966,15.9,21.948,13.219c12.604-3.077,25.179-11.067,34.087-20.399
			c3.079-3.226,6.236-7.294,6.454-11.929c0.253-5.384-5.473-8-10.075-7.649c-8.571,0.653-16.472,7.525-23.025,12.468
			c-7.842,5.914-17.521,9.762-23.422,17.96c-1.173,1.629-2.188,3.293-3.125,5.069C343.338,133.087,347.653,135.614,349.158,132.762
			L349.158,132.762z"/>
	</g>
</g>
<g>
	<g>
		<path d="M363.342,109.262c6.917,12.842,23.131,18.231,36.973,17.813c5.74-0.173,11.692-1.534,14.986-6.607
			c3.053-4.702,2.212-11.685,2.199-16.967c-0.007-2.796-4.234-3.441-4.911-0.665c-1.082,4.448-1.979,8.873-0.5,13.329
			c0.581,1.75,2.803,2.498,4.179,1.103c1.818-1.843,3.281-3.658,4.391-6.006c-1.522-0.642-3.046-1.284-4.569-1.926
			c-1.436,7.727-1.298,19.399,6.116,24.184c6.198,4,13.923-2.127,18.271-6.105c17.055-15.598,22.221-37.955,27.704-59.52
			c2.155-8.475,8.152-18.974-3.206-23.08c-6.103-2.206-12.437,1.269-17.075,4.969c-12.204,9.734-20.87,27.397-23.727,42.513
			c-6.75,35.727,51.816,12.153,66.022,6.464c6.311-2.528,12.548-5.23,18.795-7.91c2.229-0.956,4.474-1.849,6.734-2.726
			c2.617-1.017,9.028-4.838,11.899-3.558c2.002,0.893-4.235,13.58-4.924,14.861c-2.893,5.381-6.978,10.138-12.34,13.136
			c-5.301,2.963-11.532,2.161-16.606-0.793c-5.635-3.28-11.454-9.896-7.596-16.507c1.629-2.791-2.692-5.306-4.316-2.523
			c-5.47,9.371,1.472,18.257,9.389,23.348c8.598,5.529,18.632,3.613,26.315-2.364c7.539-5.866,13.866-17.202,15.016-26.689
			c1.074-8.868-7.117-7.915-13.016-5.756c-13.334,4.88-26.146,11.079-39.446,16.063c-8.271,3.1-16.693,5.868-25.316,7.804
			c-6.593,1.48-14.117,2.795-20.714,0.678c-11.989-3.847-1.825-24.129,1.453-30.834c4.157-8.502,16.295-30.544,28.88-25.065
			c5.316,2.315,0.404,11.049-0.635,15.05c-1.56,6-3.02,12.023-4.661,18.002c-2.812,10.234-6.145,20.592-12.269,29.36
			c-4.346,6.223-9.745,12.825-16.571,16.402c-10.054,5.27-10.422-12.333-9.355-18.072c0.484-2.609-3.281-4.652-4.569-1.926
			c-0.929,1.963-2.099,3.462-3.609,4.994c1.393,0.368,2.785,0.735,4.179,1.103c-1.2-3.614-0.375-7.076,0.5-10.671
			c-1.638-0.222-3.274-0.443-4.911-0.665c0.01,4.242,0.346,8.661-0.794,12.792c-1.463,5.304-8.09,5.684-12.604,5.82
			c-11.681,0.353-25.66-4.637-31.443-15.373C366.129,103.899,361.813,106.423,363.342,109.262L363.342,109.262z"/>
	</g>
</g>
<g>
	<g>
		<path d="M528.5,37c0,9.048,0.069,18.099-0.01,27.146c-0.065,7.417-1.021,14.825-1.421,22.228
			c-0.393,7.268-0.344,14.657,1.389,21.763c1.817,7.457,7.633,10.603,12.274,16.131c2.076,2.473,5.594-1.083,3.535-3.535
			c-2.226-2.651-4.902-4.725-7.398-7.098c-2.611-2.481-3.453-5.938-4.153-9.331c-1.4-6.792-0.893-14.06-0.475-20.927
			C533.185,67.868,533.5,52.549,533.5,37C533.5,33.776,528.5,33.776,528.5,37L528.5,37z"/>
	</g>
</g>
</svg>
